<?xml version="1.0" encoding="UTF-8"?>
<svg width="129px" height="44px" viewBox="0 0 129 44" version="1.1" xmlns="http://www.w3.org/2000/svg" xmlns:xlink="http://www.w3.org/1999/xlink">
    <!-- Generator: Sketch 48.2 (47327) - http://www.bohemiancoding.com/sketch -->
    <title>Group 16 Copy</title>
    <desc>Created with Sketch.</desc>
    <defs></defs>
    <g id="Desktop-Copy-6" stroke="none" stroke-width="1" fill="none" fill-rule="evenodd" transform="translate(-32.000000, -27.000000)">
        <g id="Group-16-Copy" transform="translate(32.000000, 27.000000)">
            <rect id="Rectangle-11-Copy" fill="#000000" x="0" y="0" width="129" height="44"></rect>
            <path d="M15.0649849,32.3860124 C13.9607528,31.804337 13.1060475,30.9749234 12.5008433,29.8977467 C11.8956392,28.82057 11.5930416,27.5710638 11.5930416,26.1491906 L11.5930416,17.1655821 C11.5930416,15.7652524 11.8956392,14.5319037 12.5008433,13.4654988 C13.1060475,12.3990939 13.9607528,11.5750661 15.0649849,10.9933907 C16.169217,10.4117153 17.4433119,10.1208819 18.8873078,10.1208819 C20.3313036,10.1208819 21.6053985,10.4063295 22.7096306,10.9772331 C23.8138628,11.5481367 24.6685681,12.3506213 25.2737722,13.3847109 C25.8789764,14.4188005 26.1815739,15.6252203 26.1815739,17.0040064 L26.1815739,17.1655821 C26.1815739,17.2732998 26.1444128,17.3702442 26.0700895,17.4564184 C25.9957662,17.5425925 25.9055178,17.5856789 25.7993416,17.5856789 L22.0725768,17.7472546 C21.817754,17.7472546 21.6903445,17.628767 21.6903445,17.3917881 L21.6903445,16.9716913 C21.6903445,16.0884064 21.4355256,15.3774805 20.92588,14.8388921 C20.4162344,14.3003038 19.7367171,14.0310137 18.8873078,14.0310137 C18.0378984,14.0310137 17.3583812,14.3003038 16.8487356,14.8388921 C16.33909,15.3774805 16.084271,16.0884064 16.084271,16.9716913 L16.084271,26.4400269 C16.084271,27.3233117 16.33909,28.0288519 16.8487356,28.5566685 C17.3583812,29.084485 18.0378984,29.3483893 18.8873078,29.3483893 C19.7367171,29.3483893 20.4162344,29.084485 20.92588,28.5566685 C21.4355256,28.0288519 21.6903445,27.3233117 21.6903445,26.4400269 L21.6903445,26.0199301 C21.6903445,25.7829512 21.817754,25.6644636 22.0725768,25.6644636 L25.7993416,25.8260392 C26.0541644,25.8260392 26.1815739,25.9014405 26.1815739,26.0522452 L26.1815739,26.3107663 C26.1815739,27.6895525 25.8789764,28.9067438 25.2737722,29.962377 C24.6685681,31.0180101 23.8138628,31.8312663 22.7096306,32.4021699 C21.6053985,32.9730736 20.3313036,33.2585211 18.8873078,33.2585211 C17.4433119,33.2585211 16.169217,32.9676878 15.0649849,32.3860124 Z M32.4681461,32.3536972 C31.363914,31.7504783 30.5092086,30.9049073 29.9040045,29.8169589 C29.2988004,28.7290104 28.9962028,27.4741184 28.9962028,26.0522452 L28.9962028,10.7671847 C28.9962028,10.659467 29.0333639,10.5679084 29.1076872,10.492506 C29.1820106,10.4171036 29.2722589,10.379403 29.3784351,10.379403 L33.1051999,10.379403 C33.2113761,10.379403 33.3016244,10.4171036 33.3759478,10.492506 C33.4502711,10.5679084 33.4874322,10.659467 33.4874322,10.7671847 L33.4874322,26.2784512 C33.4874322,27.2048231 33.7422512,27.9480639 34.2518968,28.5081957 C34.7615423,29.0683276 35.4410596,29.3483893 36.2904689,29.3483893 C37.1398783,29.3483893 37.8193955,29.0683276 38.3290411,28.5081957 C38.8386867,27.9480639 39.0935057,27.2048231 39.0935057,26.2784512 L39.0935057,10.7671847 C39.0935057,10.659467 39.1306668,10.5679084 39.2049901,10.492506 C39.2793134,10.4171036 39.3695618,10.379403 39.475738,10.379403 L43.2025028,10.379403 C43.3086789,10.379403 43.3989273,10.4171036 43.4732506,10.492506 C43.547574,10.5679084 43.5847351,10.659467 43.5847351,10.7671847 L43.5847351,26.0522452 C43.5847351,27.4741184 43.2821375,28.7290104 42.6769334,29.8169589 C42.0717292,30.9049073 41.2170239,31.7504783 40.1127918,32.3536972 C39.0085597,32.9569162 37.7344648,33.2585211 36.2904689,33.2585211 C34.8464731,33.2585211 33.5723782,32.9569162 32.4681461,32.3536972 Z M47.0204915,32.886897 C46.9461681,32.8114946 46.909007,32.719936 46.909007,32.6122183 L46.909007,10.7671847 C46.909007,10.659467 46.9461681,10.5679084 47.0204915,10.492506 C47.0948148,10.4171036 47.1850632,10.379403 47.2912393,10.379403 L51.0180041,10.379403 C51.1241803,10.379403 51.2144287,10.4171036 51.288752,10.492506 C51.3630753,10.5679084 51.4002364,10.659467 51.4002364,10.7671847 L51.4002364,28.9282925 C51.4002364,29.0360102 51.4533237,29.0898682 51.5594999,29.0898682 L60.0960209,29.0898682 C60.2021971,29.0898682 60.2924455,29.1275689 60.3667688,29.2029712 C60.4410921,29.2783736 60.4782532,29.3699322 60.4782532,29.4776499 L60.4782532,32.6122183 C60.4782532,32.719936 60.4410921,32.8114946 60.3667688,32.886897 C60.2924455,32.9622994 60.2021971,33 60.0960209,33 L47.2912393,33 C47.1850632,33 47.0948148,32.9622994 47.0204915,32.886897 Z M75.0943039,10.492506 C75.1686273,10.5679084 75.2057884,10.659467 75.2057884,10.7671847 L75.2057884,13.9340683 C75.2057884,14.0417859 75.1686273,14.1333446 75.0943039,14.2087469 C75.0199806,14.2841493 74.9297322,14.3218499 74.8235561,14.3218499 L69.9819471,14.3218499 C69.875771,14.3218499 69.8226837,14.375708 69.8226837,14.4834256 L69.8226837,32.6122183 C69.8226837,32.719936 69.7855226,32.8114946 69.7111993,32.886897 C69.6368759,32.9622994 69.5466275,33 69.4404514,33 L65.7136866,33 C65.6075104,33 65.517262,32.9622994 65.4429387,32.886897 C65.3686154,32.8114946 65.3314543,32.719936 65.3314543,32.6122183 L65.3314543,14.4834256 C65.3314543,14.375708 65.278367,14.3218499 65.1721909,14.3218499 L60.4898454,14.3218499 C60.3836692,14.3218499 60.2934208,14.2841493 60.2190975,14.2087469 C60.1447742,14.1333446 60.1076131,14.0417859 60.1076131,13.9340683 L60.1076131,10.7671847 C60.1076131,10.659467 60.1447742,10.5679084 60.2190975,10.492506 C60.2934208,10.4171036 60.3836692,10.379403 60.4898454,10.379403 L74.8235561,10.379403 C74.9297322,10.379403 75.0199806,10.4171036 75.0943039,10.492506 Z M77.9407856,32.886897 C77.8664622,32.8114946 77.8293011,32.719936 77.8293011,32.6122183 L77.8293011,10.7671847 C77.8293011,10.659467 77.8664622,10.5679084 77.9407856,10.492506 C78.0151089,10.4171036 78.1053573,10.379403 78.2115334,10.379403 L81.9382982,10.379403 C82.0444744,10.379403 82.1347228,10.4171036 82.2090461,10.492506 C82.2833694,10.5679084 82.3205305,10.659467 82.3205305,10.7671847 L82.3205305,32.6122183 C82.3205305,32.719936 82.2833694,32.8114946 82.2090461,32.886897 C82.1347228,32.9622994 82.0444744,33 81.9382982,33 L78.2115334,33 C78.1053573,33 78.0151089,32.9622994 77.9407856,32.886897 Z M90.4227061,32.6768486 L84.8803379,10.7994998 L84.8803379,10.6702393 C84.8803379,10.4763475 84.9971299,10.379403 85.2307175,10.379403 L89.2760092,10.379403 C89.5095968,10.379403 89.6476237,10.4978907 89.6900942,10.7348696 L92.9072159,25.761409 C92.9284511,25.8475831 92.9603035,25.8906695 93.002774,25.8906695 C93.0452445,25.8906695 93.0770968,25.8475831 93.0983321,25.761409 L96.2836011,10.7348696 C96.3260716,10.4978907 96.4640985,10.379403 96.6976861,10.379403 L100.615567,10.379403 C100.91286,10.379403 101.029652,10.5194339 100.965947,10.7994998 L95.3598731,32.6768486 C95.2961674,32.8922839 95.147523,33 94.9139354,33 L90.8686437,33 C90.6350562,33 90.4864118,32.8922839 90.4227061,32.6768486 Z M105.898779,32.3860124 C104.78393,31.7827934 103.918607,30.9318366 103.302785,29.8331164 C102.686963,28.7343962 102.379057,27.4525752 102.379057,25.9876149 L102.379057,17.3917881 C102.379057,15.9483714 102.686963,14.6773219 103.302785,13.5786017 C103.918607,12.4798815 104.78393,11.6289247 105.898779,11.0257058 C107.013629,10.4224869 108.30365,10.1208819 109.768881,10.1208819 C111.234112,10.1208819 112.529442,10.4224869 113.65491,11.0257058 C114.780377,11.6289247 115.651008,12.4798815 116.26683,13.5786017 C116.882652,14.6773219 117.190558,15.9483714 117.190558,17.3917881 L117.190558,25.9876149 C117.190558,27.4525752 116.882652,28.7343962 116.26683,29.8331164 C115.651008,30.9318366 114.780377,31.7827934 113.65491,32.3860124 C112.529442,32.9892313 111.234112,33.2908362 109.768881,33.2908362 C108.30365,33.2908362 107.013629,32.9892313 105.898779,32.3860124 Z M111.903012,28.4920382 C112.433892,27.899591 112.699329,27.1294212 112.699329,26.1815058 L112.699329,17.2625275 C112.699329,16.2930685 112.433892,15.5121272 111.903012,14.91968 C111.372131,14.3272328 110.660761,14.0310137 109.768881,14.0310137 C108.898237,14.0310137 108.197485,14.3272328 107.666604,14.91968 C107.135723,15.5121272 106.870287,16.2930685 106.870287,17.2625275 L106.870287,26.1815058 C106.870287,27.1294212 107.135723,27.899591 107.666604,28.4920382 C108.197485,29.0844853 108.898237,29.3807045 109.768881,29.3807045 C110.660761,29.3807045 111.372131,29.0844853 111.903012,28.4920382 Z" id="CULTIVO-Copy-5" fill="#FFFFFF"></path>
        </g>
    </g>
</svg>